# xmcd
#
# Track frame offsets: 
#        150
#        12365
#        25985
#        38247
#        49423
#        64325
#        77409
#        92516
#        106938
#        120192
#        130280
#        141481
#        153291
#        167233
#        180641
#        195366
#        209084
#        213592
#        239834
#        252408
#
# Disc length: 3834 seconds
#
# Revision: 0
# Processed by: cddbd v1.5.2PL0 Copyright (c) Steve Scherf et al.
# Submitted via: ExactAudioCopy v0.95b3
#
DISCID=210ef814
DTITLE=Howlin' Wolf  - Chess Records Outtakes,Demos and Alternate Takes 
DTITLE=1948 - 1968 - Disc 3
DYEAR=1900
DGENRE=
TTITLE0=Somebody In My Home
TTITLE1=Midnight Blues #1
TTITLE2=Midnight Blues #2
TTITLE3=I Didn't Know #2
TTITLE4=I Better Go Now - Take 3
TTITLE5=I Better Go Now - Take ??
TTITLE6=Can't Put Me Out
TTITLE7=Getting Late
TTITLE8=Howlin'blues
TTITLE9=I've Been Abused
TTITLE10=My People's Gone
TTITLE11=Long Green Stuff
TTITLE12=Joy To My Soul
TTITLE13=Poor Wind That Never Change
TTITLE14=Commit A Crime
TTITLE15=Dust My Broom
TTITLE16=Rollin' And Tumblin'
TTITLE17=Tired Of Crying
TTITLE18=I'm Leaving You
TTITLE19=Big House - Live In Chicago
EXTD=
EXTT0=
EXTT1=
EXTT2=
EXTT3=
EXTT4=
EXTT5=
EXTT6=
EXTT7=
EXTT8=
EXTT9=
EXTT10=
EXTT11=
EXTT12=
EXTT13=
EXTT14=
EXTT15=
EXTT16=
EXTT17=
EXTT18=
EXTT19=
PLAYORDER=
